# Blender 4.2.0
# www.blender.org
mtllib Blade.mtl
o KunaiBlade
v 0.020000 0.063312 0.000000
v 0.028000 0.147728 0.000000
v 0.020000 0.274351 0.000000
v 0.009659 0.021104 -0.002588
v 0.019319 0.063312 -0.005176
v 0.027046 0.147728 -0.007247
v 0.019319 0.274351 -0.005176
v 0.009659 0.379871 -0.002588
v 0.008660 0.021104 -0.005000
v 0.017321 0.063312 -0.010000
v 0.024249 0.147728 -0.014000
v 0.017321 0.274351 -0.010000
v 0.008660 0.379871 -0.005000
v 0.007071 0.021104 -0.007071
v 0.014142 0.063312 -0.014142
v 0.019799 0.147728 -0.019799
v 0.014142 0.274351 -0.014142
v 0.007071 0.379871 -0.007071
v 0.005000 0.021104 -0.008660
v 0.010000 0.063312 -0.017321
v 0.014000 0.147728 -0.024249
v 0.010000 0.274351 -0.017321
v 0.005000 0.379871 -0.008660
v 0.002588 0.021104 -0.009659
v 0.005176 0.063312 -0.019319
v 0.007247 0.147728 -0.027046
v 0.005176 0.274351 -0.019319
v 0.002588 0.379871 -0.009659
v 0.000000 0.021104 -0.010000
v 0.000000 0.063312 -0.020000
v 0.000000 0.147728 -0.028000
v 0.000000 0.274351 -0.020000
v 0.000000 0.379871 -0.010000
v -0.002588 0.021104 -0.009659
v -0.005176 0.063312 -0.019319
v -0.007247 0.147728 -0.027046
v -0.005176 0.274351 -0.019319
v -0.002588 0.379871 -0.009659
v -0.005000 0.021104 -0.008660
v -0.010000 0.063312 -0.017321
v -0.014000 0.147728 -0.024249
v -0.010000 0.274351 -0.017321
v -0.005000 0.379871 -0.008660
v -0.007071 0.021104 -0.007071
v -0.014142 0.063312 -0.014142
v -0.019799 0.147728 -0.019799
v -0.014142 0.274351 -0.014142
v -0.007071 0.379871 -0.007071
v -0.008660 0.021104 -0.005000
v -0.017320 0.063312 -0.010000
v -0.024249 0.147728 -0.014000
v -0.017320 0.274351 -0.010000
v -0.008660 0.379871 -0.005000
v -0.009659 0.021104 -0.002588
v -0.019319 0.063312 -0.005176
v -0.027046 0.147728 -0.007247
v -0.019319 0.274351 -0.005176
v -0.009659 0.379871 -0.002588
v -0.010000 0.021104 -0.000000
v -0.020000 0.063312 -0.000000
v -0.028000 0.147728 -0.000000
v -0.020000 0.274351 -0.000000
v -0.010000 0.379871 -0.000000
v -0.009659 0.021104 0.002588
v -0.019319 0.063312 0.005176
v -0.027046 0.147728 0.007247
v -0.019319 0.274351 0.005176
v -0.009659 0.379871 0.002588
v -0.008660 0.021104 0.005000
v -0.017321 0.063312 0.010000
v -0.024249 0.147728 0.014000
v -0.017321 0.274351 0.010000
v -0.008660 0.379871 0.005000
v -0.007071 0.021104 0.007071
v -0.014142 0.063312 0.014142
v -0.019799 0.147728 0.019799
v -0.014142 0.274351 0.014142
v -0.007071 0.379871 0.007071
v -0.005000 0.021104 0.008660
v -0.010000 0.063312 0.017320
v -0.014000 0.147728 0.024249
v -0.010000 0.274351 0.017320
v -0.005000 0.379871 0.008660
v -0.002588 0.021104 0.009659
v -0.005176 0.063312 0.019319
v -0.007247 0.147728 0.027046
v -0.005176 0.274351 0.019319
v -0.002588 0.379871 0.009659
v -0.000000 0.021104 0.010000
v -0.000000 0.063312 0.020000
v -0.000000 0.147728 0.028000
v -0.000000 0.274351 0.020000
v -0.000000 0.379871 0.010000
v 0.002588 0.021104 0.009659
v 0.005176 0.063312 0.019319
v 0.007247 0.147728 0.027046
v 0.005176 0.274351 0.019319
v 0.002588 0.379871 0.009659
v 0.005000 0.021104 0.008660
v 0.010000 0.063312 0.017321
v 0.014000 0.147728 0.024249
v 0.010000 0.274351 0.017321
v 0.005000 0.379871 0.008660
v 0.000000 0.464287 0.000000
v 0.000000 0.000000 0.000000
v 0.007071 0.021104 0.007071
v 0.014142 0.063312 0.014142
v 0.019799 0.147728 0.019799
v 0.014142 0.274351 0.014142
v 0.007071 0.379871 0.007071
v 0.008660 0.021104 0.005000
v 0.017320 0.063312 0.010000
v 0.024249 0.147728 0.014000
v 0.017320 0.274351 0.010000
v 0.008660 0.379871 0.005000
v 0.009659 0.021104 0.002588
v 0.019319 0.063312 0.005176
v 0.027046 0.147728 0.007247
v 0.019319 0.274351 0.005176
v 0.009659 0.379871 0.002588
v 0.010000 0.021104 0.000000
v 0.010000 0.379871 0.000000
vn 0.9871 -0.0935 -0.1300
vn 0.8974 -0.4252 -0.1181
vn 0.9847 0.1166 -0.1296
vn 0.9895 0.0625 -0.1303
vn 0.9652 -0.2287 -0.1271
vn 0.9871 0.0935 -0.1300
vn 0.9176 0.1166 -0.3801
vn 0.9221 0.0625 -0.3819
vn 0.8994 -0.2287 -0.3725
vn 0.9198 0.0935 -0.3810
vn 0.9198 -0.0935 -0.3810
vn 0.8362 -0.4252 -0.3464
vn 0.7879 0.1166 -0.6046
vn 0.7918 0.0625 -0.6076
vn 0.7723 -0.2287 -0.5926
vn 0.7899 0.0935 -0.6061
vn 0.7899 -0.0935 -0.6061
vn 0.7181 -0.4252 -0.5510
vn 0.6076 0.0625 -0.7918
vn 0.5926 -0.2287 -0.7723
vn 0.6061 0.0935 -0.7899
vn 0.6061 -0.0935 -0.7899
vn 0.5510 -0.4252 -0.7181
vn 0.6046 0.1166 -0.7879
vn 0.3725 -0.2287 -0.8994
vn 0.3810 0.0935 -0.9198
vn 0.3810 -0.0935 -0.9198
vn 0.3464 -0.4252 -0.8362
vn 0.3801 0.1166 -0.9176
vn 0.3819 0.0625 -0.9221
vn 0.1300 0.0935 -0.9871
vn 0.1300 -0.0935 -0.9871
vn 0.1181 -0.4252 -0.8974
vn 0.1296 0.1166 -0.9847
vn 0.1303 0.0625 -0.9895
vn 0.1271 -0.2287 -0.9652
vn -0.1300 0.0935 -0.9871
vn -0.1300 -0.0935 -0.9871
vn -0.1181 -0.4252 -0.8974
vn -0.1296 0.1166 -0.9847
vn -0.1303 0.0625 -0.9895
vn -0.1271 -0.2287 -0.9652
vn -0.3810 0.0935 -0.9198
vn -0.3810 -0.0935 -0.9198
vn -0.3464 -0.4252 -0.8362
vn -0.3801 0.1166 -0.9176
vn -0.3819 0.0625 -0.9221
vn -0.3725 -0.2287 -0.8994
vn -0.6061 0.0935 -0.7899
vn -0.6061 -0.0935 -0.7899
vn -0.5510 -0.4252 -0.7181
vn -0.6046 0.1166 -0.7879
vn -0.6076 0.0625 -0.7918
vn -0.5926 -0.2287 -0.7723
vn -0.7899 -0.0935 -0.6061
vn -0.7181 -0.4252 -0.5510
vn -0.7879 0.1166 -0.6046
vn -0.7918 0.0625 -0.6076
vn -0.7723 -0.2287 -0.5926
vn -0.7899 0.0935 -0.6061
vn -0.8362 -0.4252 -0.3464
vn -0.9176 0.1166 -0.3801
vn -0.9221 0.0625 -0.3819
vn -0.8994 -0.2287 -0.3725
vn -0.9198 0.0935 -0.3810
vn -0.9198 -0.0935 -0.3810
vn -0.9847 0.1166 -0.1296
vn -0.9895 0.0625 -0.1303
vn -0.9652 -0.2287 -0.1271
vn -0.9871 0.0935 -0.1300
vn -0.9871 -0.0935 -0.1300
vn -0.8974 -0.4252 -0.1181
vn -0.9847 0.1166 0.1296
vn -0.9895 0.0625 0.1303
vn -0.9652 -0.2287 0.1271
vn -0.9871 0.0935 0.1300
vn -0.9871 -0.0935 0.1300
vn -0.8974 -0.4252 0.1181
vn -0.9176 0.1166 0.3801
vn -0.9221 0.0625 0.3819
vn -0.8994 -0.2287 0.3725
vn -0.9198 0.0935 0.3810
vn -0.9198 -0.0935 0.3810
vn -0.8362 -0.4252 0.3464
vn -0.7918 0.0625 0.6076
vn -0.7723 -0.2287 0.5926
vn -0.7899 0.0935 0.6061
vn -0.7899 -0.0935 0.6061
vn -0.7181 -0.4252 0.5510
vn -0.7879 0.1166 0.6046
vn -0.5926 -0.2287 0.7723
vn -0.6061 0.0935 0.7899
vn -0.6061 -0.0935 0.7899
vn -0.5510 -0.4252 0.7181
vn -0.6046 0.1166 0.7879
vn -0.6076 0.0625 0.7918
vn -0.3810 0.0935 0.9198
vn -0.3810 -0.0935 0.9198
vn -0.3464 -0.4252 0.8362
vn -0.3801 0.1166 0.9176
vn -0.3819 0.0625 0.9221
vn -0.3725 -0.2287 0.8994
vn -0.1300 0.0935 0.9871
vn -0.1300 -0.0935 0.9871
vn -0.1181 -0.4252 0.8974
vn -0.1296 0.1166 0.9847
vn -0.1303 0.0625 0.9895
vn -0.1271 -0.2287 0.9652
vn 0.1300 0.0935 0.9871
vn 0.1300 -0.0935 0.9871
vn 0.1181 -0.4252 0.8974
vn 0.1296 0.1166 0.9847
vn 0.1303 0.0625 0.9895
vn 0.1271 -0.2287 0.9652
vn 0.3810 0.0935 0.9198
vn 0.3810 -0.0935 0.9198
vn 0.3464 -0.4252 0.8362
vn 0.3801 0.1166 0.9176
vn 0.3819 0.0625 0.9221
vn 0.3725 -0.2287 0.8994
vn 0.6061 -0.0935 0.7899
vn 0.5510 -0.4252 0.7181
vn 0.6046 0.1166 0.7879
vn 0.6076 0.0625 0.7918
vn 0.5926 -0.2287 0.7723
vn 0.6061 0.0935 0.7899
vn 0.7181 -0.4252 0.5510
vn 0.7879 0.1166 0.6046
vn 0.7918 0.0625 0.6076
vn 0.7723 -0.2287 0.5926
vn 0.7899 0.0935 0.6061
vn 0.7899 -0.0935 0.6061
vn 0.9176 0.1166 0.3801
vn 0.9221 0.0625 0.3819
vn 0.8994 -0.2287 0.3725
vn 0.9198 0.0935 0.3810
vn 0.9198 -0.0935 0.3810
vn 0.8362 -0.4252 0.3464
vn 0.9847 0.1166 0.1296
vn 0.9895 0.0625 0.1303
vn 0.9652 -0.2287 0.1271
vn 0.9871 0.0935 0.1300
vn 0.9871 -0.0935 0.1300
vn 0.8974 -0.4252 0.1181
s 0
f 1//1 5//1 6//1 2//1
f 105//2 4//2 121//2
f 122//3 8//3 104//3
f 2//4 6//4 7//4 3//4
f 121//5 4//5 5//5 1//5
f 3//6 7//6 8//6 122//6
f 8//7 13//7 104//7
f 6//8 11//8 12//8 7//8
f 4//9 9//9 10//9 5//9
f 7//10 12//10 13//10 8//10
f 5//11 10//11 11//11 6//11
f 105//12 9//12 4//12
f 13//13 18//13 104//13
f 11//14 16//14 17//14 12//14
f 9//15 14//15 15//15 10//15
f 12//16 17//16 18//16 13//16
f 10//17 15//17 16//17 11//17
f 105//18 14//18 9//18
f 16//19 21//19 22//19 17//19
f 14//20 19//20 20//20 15//20
f 17//21 22//21 23//21 18//21
f 15//22 20//22 21//22 16//22
f 105//23 19//23 14//23
f 18//24 23//24 104//24
f 19//25 24//25 25//25 20//25
f 22//26 27//26 28//26 23//26
f 20//27 25//27 26//27 21//27
f 105//28 24//28 19//28
f 23//29 28//29 104//29
f 21//30 26//30 27//30 22//30
f 27//31 32//31 33//31 28//31
f 25//32 30//32 31//32 26//32
f 105//33 29//33 24//33
f 28//34 33//34 104//34
f 26//35 31//35 32//35 27//35
f 24//36 29//36 30//36 25//36
f 32//37 37//37 38//37 33//37
f 30//38 35//38 36//38 31//38
f 105//39 34//39 29//39
f 33//40 38//40 104//40
f 31//41 36//41 37//41 32//41
f 29//42 34//42 35//42 30//42
f 37//43 42//43 43//43 38//43
f 35//44 40//44 41//44 36//44
f 105//45 39//45 34//45
f 38//46 43//46 104//46
f 36//47 41//47 42//47 37//47
f 34//48 39//48 40//48 35//48
f 42//49 47//49 48//49 43//49
f 40//50 45//50 46//50 41//50
f 105//51 44//51 39//51
f 43//52 48//52 104//52
f 41//53 46//53 47//53 42//53
f 39//54 44//54 45//54 40//54
f 45//55 50//55 51//55 46//55
f 105//56 49//56 44//56
f 48//57 53//57 104//57
f 46//58 51//58 52//58 47//58
f 44//59 49//59 50//59 45//59
f 47//60 52//60 53//60 48//60
f 105//61 54//61 49//61
f 53//62 58//62 104//62
f 51//63 56//63 57//63 52//63
f 49//64 54//64 55//64 50//64
f 52//65 57//65 58//65 53//65
f 50//66 55//66 56//66 51//66
f 58//67 63//67 104//67
f 56//68 61//68 62//68 57//68
f 54//69 59//69 60//69 55//69
f 57//70 62//70 63//70 58//70
f 55//71 60//71 61//71 56//71
f 105//72 59//72 54//72
f 63//73 68//73 104//73
f 61//74 66//74 67//74 62//74
f 59//75 64//75 65//75 60//75
f 62//76 67//76 68//76 63//76
f 60//77 65//77 66//77 61//77
f 105//78 64//78 59//78
f 68//79 73//79 104//79
f 66//80 71//80 72//80 67//80
f 64//81 69//81 70//81 65//81
f 67//82 72//82 73//82 68//82
f 65//83 70//83 71//83 66//83
f 105//84 69//84 64//84
f 71//85 76//85 77//85 72//85
f 69//86 74//86 75//86 70//86
f 72//87 77//87 78//87 73//87
f 70//88 75//88 76//88 71//88
f 105//89 74//89 69//89
f 73//90 78//90 104//90
f 74//91 79//91 80//91 75//91
f 77//92 82//92 83//92 78//92
f 75//93 80//93 81//93 76//93
f 105//94 79//94 74//94
f 78//95 83//95 104//95
f 76//96 81//96 82//96 77//96
f 82//97 87//97 88//97 83//97
f 80//98 85//98 86//98 81//98
f 105//99 84//99 79//99
f 83//100 88//100 104//100
f 81//101 86//101 87//101 82//101
f 79//102 84//102 85//102 80//102
f 87//103 92//103 93//103 88//103
f 85//104 90//104 91//104 86//104
f 105//105 89//105 84//105
f 88//106 93//106 104//106
f 86//107 91//107 92//107 87//107
f 84//108 89//108 90//108 85//108
f 92//109 97//109 98//109 93//109
f 90//110 95//110 96//110 91//110
f 105//111 94//111 89//111
f 93//112 98//112 104//112
f 91//113 96//113 97//113 92//113
f 89//114 94//114 95//114 90//114
f 97//115 102//115 103//115 98//115
f 95//116 100//116 101//116 96//116
f 105//117 99//117 94//117
f 98//118 103//118 104//118
f 96//119 101//119 102//119 97//119
f 94//120 99//120 100//120 95//120
f 100//121 107//121 108//121 101//121
f 105//122 106//122 99//122
f 103//123 110//123 104//123
f 101//124 108//124 109//124 102//124
f 99//125 106//125 107//125 100//125
f 102//126 109//126 110//126 103//126
f 105//127 111//127 106//127
f 110//128 115//128 104//128
f 108//129 113//129 114//129 109//129
f 106//130 111//130 112//130 107//130
f 109//131 114//131 115//131 110//131
f 107//132 112//132 113//132 108//132
f 115//133 120//133 104//133
f 113//134 118//134 119//134 114//134
f 111//135 116//135 117//135 112//135
f 114//136 119//136 120//136 115//136
f 112//137 117//137 118//137 113//137
f 105//138 116//138 111//138
f 120//139 122//139 104//139
f 118//140 2//140 3//140 119//140
f 116//141 121//141 1//141 117//141
f 119//142 3//142 122//142 120//142
f 117//143 1//143 2//143 118//143
f 105//144 121//144 116//144
